PathFileType	4	(X/Y/Z)	26_2_13_p0_0-513.trc
DataRate	CameraRate	NumFrames	NumMarkers	Units	OrigDataRate	OrigDataStartFrame	OrigNumFrames
60.0	60.0	7	27	m	60.0	0	514
Frame#	Time	RHip			RKnee			RAnkle			RBigToe			RSmallToe			RHeel			LHip			LKnee			LAnkle			LBigToe			LSmallToe			LHeel			Neck			Head			Nose			RShoulder			RElbow			RWrist			RThumb			RIndex			RPinky			LShoulder			LElbow			LWrist			LThumb			LIndex			LPinky			
		X1	Y1	Z1	X2	Y2	Z2	X3	Y3	Z3	X4	Y4	Z4	X5	Y5	Z5	X6	Y6	Z6	X7	Y7	Z7	X8	Y8	Z8	X9	Y9	Z9	X10	Y10	Z10	X11	Y11	Z11	X12	Y12	Z12	X13	Y13	Z13	X14	Y14	Z14	X15	Y15	Z15	X16	Y16	Z16	X17	Y17	Z17	X18	Y18	Z18	X19	Y19	Z19	X20	Y20	Z20	X21	Y21	Z21	X22	Y22	Z22	X23	Y23	Z23	X24	Y24	Z24	X25	Y25	Z25	X26	Y26	Z26	X27	Y27	Z27	
0	0.0	0.29877270479722834	0.7389567643897076	0.835977091712896	0.2820513274167787	0.9620480402606781	1.2340388937064604	0.2541505410391814	1.2243647582222537	1.6525244520856293	0.24159479133969156	1.0210572327479932	1.710229884478162	0.28699172763985764	1.0582563085410848	1.708493085838411	0.24537522780600393	1.2903951227713226	1.681474468906819	0.07342580033728922	0.7647732326037312	0.8301636828441518	0.08169206833622618	0.981203965475344	1.2279788608074802	0.07521875525654322	1.1874785905763696	1.6414983759108799	0.08394778242959774	1.0298977291063387	1.6987252766943124	0.03074355437154194	1.0616573325774434	1.6886506353966046	0.09146635520926523	1.2505885494095486	1.669268063607608	0.18786262213712612	0.5403993736268285	0.32532821576128024	0.20292897906605678	0.36724644749702495	0.11712034191649504	0.1762023078134212	0.3399284905830845	0.2676319067744026	0.35325370627492764	0.5222744220554438	0.4269590739744733	0.38894188816163294	0.5909341958092205	0.7004857614281159	0.2537775296936247	0.6408284564794788	0.9095756122141756	0.17296828541993445	0.646684512593966	0.987942332575846	0.16958069571345763	0.651785651193043	0.9996064080666486	0.1708330044574915	0.6552739492410858	1.0027629252308132	0.01968529722842723	0.5277353200826753	0.41940050012904656	0.006650432056625913	0.6195964047139962	0.6786372099617178	0.11264762804644277	0.6150285439593551	0.907594441484623	0.1932792353043491	0.6218437976453441	0.9547946325966238	0.19523523466883327	0.6404880845663221	0.9963275012599172	0.17059969318166301	0.6554059521569027	1.0147359877897983
1	0.016666666666666666	0.29888631335247406	0.7390078465211732	0.8359545714253356	0.2820932130211043	0.9620204079814664	1.2339866958919363	0.2543584445168975	1.2234785093243103	1.6571322251229603	0.24065967619244788	1.0231726417495355	1.7146760898639162	0.287041886983041	1.0578678157260275	1.7084937187482236	0.24538146003195438	1.2902981876934814	1.6817673114806957	0.07346898301942727	0.7648521231617972	0.8298087380878023	0.08589642607492952	0.9821177280784463	1.2279565493626952	0.07517249739018747	1.186861627272856	1.641415100815239	0.08685308754109035	1.052536250540459	1.7095099456917562	0.031132157359737744	1.0604108267293222	1.688398509352233	0.09167218860818246	1.2504447479887504	1.6691896910786415	0.18783142217424456	0.5404100621062027	0.32531121450649925	0.2031710497272219	0.3665444841621385	0.11730322610506694	0.1762138280663338	0.3398137860296422	0.26761238655017133	0.34928741636535293	0.5219936279672952	0.4269712971654908	0.38234495462423435	0.5916203793001736	0.6971374349941706	0.2571243268903975	0.62734395909834	0.9107894941654959	0.17305974152270667	0.6465961431922813	0.9878737921199879	0.16963170989964466	0.6518735082755845	0.9995718572542491	0.17086332392336961	0.6551779156553488	1.0030096040135092	0.019714232233843058	0.528095687107693	0.4192141515248762	0.010303341809474323	0.6180348943296671	0.6783869051609152	0.11255411073618055	0.6150161791510425	0.9075791682770378	0.19796269618302817	0.6230386560125326	0.9547557294146048	0.19529919861609463	0.6389617455540276	0.9961501878585909	0.16706953314657735	0.6442597957946703	1.0189235520344868
2	0.03333333333333333	0.29959934494506385	0.7423491547757756	0.839779972289002	0.28211544349189505	0.9619565553874648	1.2340483363845032	0.25439522463992753	1.2236477300478865	1.657121259097751	0.2405277430481459	1.0232563056311335	1.7147502213306194	0.2867778335662036	1.0578833574130049	1.7085122794249694	0.24996409115390353	1.3072390763122126	1.684058844963874	0.0734757778337662	0.7649299613902575	0.8300637845087074	0.0859346255569373	0.9821496075417273	1.2280690682638549	0.07531499022554392	1.1870100018372038	1.64147271615809	0.08304036703815978	1.0317694307150975	1.7022333675988697	0.031050202190454942	1.0610183615722826	1.688537788293789	0.09182404528079272	1.2506853106211877	1.6692683478506039	0.1878239179025087	0.5404007498194782	0.3253289032476535	0.2033247146473585	0.3665179515376408	0.1173193414799002	0.1762355063784982	0.3397750631839841	0.2675731881857616	0.34930242412747886	0.521962376304677	0.42698059807281447	0.38482399875921797	0.5778267636218937	0.6991560853194525	0.2571331492256691	0.6272756810717647	0.9108714893163712	0.17305540117529788	0.646654784357361	0.9880174464922621	0.1702913883762944	0.6549798785161136	1.0042609985075917	0.17078861292052044	0.655035223955504	1.0031270630640026	0.019745346228894168	0.5280274267175533	0.41930702033004597	0.00705256689619815	0.6058883857151842	0.6803547679893982	0.11242263170306699	0.6152973678025019	0.9076464226666845	0.19768031980662457	0.6218367841303089	0.9546774746117698	0.1950729541000155	0.6383854622051076	0.996169561581164	0.1670069854361682	0.6442335044867985	1.0188592812927766
3	0.05	0.29882894630786966	0.7388681178453609	0.8357181272502625	0.2821238371923414	0.9621049493029165	1.2337597596076249	0.25434353159495865	1.2236782256219134	1.657013047062209	0.2415315539997986	1.0215681775222496	1.710678288178114	0.2878406636858216	1.062551970240042	1.7132084965518644	0.25000917392050415	1.3072396419941488	1.6836451960445618	0.07348710668490034	0.7648395641944874	0.8296045327925863	0.08586903567320027	0.9819254230342602	1.2279217889412994	0.07645177407376291	1.1843339286513872	1.6369756573935472	0.08779492416107418	1.0501729845438834	1.7060696742212882	0.032240682105100886	1.059185573031929	1.6848486648770828	0.09196864714045774	1.2504871716843184	1.6691944140154573	0.18781058834932504	0.5403691901804765	0.3253423540775895	0.20348277712449117	0.3664733746620939	0.11741883707111068	0.17620988097923965	0.33977335140708614	0.26758911385806783	0.35324981803847644	0.5223551573621875	0.4268808672162906	0.38479913634962054	0.5779182790008092	0.6990996474926734	0.2571260619098626	0.6271098203464867	0.910878461580034	0.17300922477909295	0.6468677860628388	0.9878289553931832	0.1702222844683262	0.6552849267563244	1.0041421946553266	0.170810985324689	0.6551639954063851	1.0033807820012093	0.019732171233156976	0.527919010382471	0.4193671893737023	0.006409258114755181	0.6169733097784051	0.678598662879781	0.11247099780392106	0.6152211166482061	0.9076090634667096	0.19801415246325668	0.6235567095573026	0.9547775968327744	0.19519913516867457	0.6398361762553162	0.9962577490226995	0.170556809539088	0.6557013814212171	1.0185312729900338
4	0.06666666666666667	0.29894647934610935	0.7390890536307676	0.8359777209774961	0.28202827170498623	0.9619797843590661	1.2335767819896777	0.25071157178207465	1.2444247614245947	1.6554017222616393	0.24143232661547911	1.0214293988691612	1.710530787844645	0.2866792591129758	1.0588349833464503	1.7086368791412683	0.24995245466073257	1.307456532247461	1.683745781610532	0.07351966558589963	0.7647739139715106	0.8298436077690171	0.08608192465563572	0.9818160945850432	1.22815379373463	0.07656907176126357	1.1844007524789841	1.6369995571021814	0.08715981332503522	1.0458821050096256	1.7013136786869427	0.03522631304527881	1.077075790704223	1.687360669936465	0.09234393480939271	1.2517467131472426	1.6693361085872158	0.18784192617621026	0.5404360543431069	0.32530088005052143	0.20352488955329695	0.36653898694197323	0.11745473012755031	0.17620889852046426	0.33982214361278107	0.2675639263541928	0.35341372453755	0.5226862076450155	0.42689197118402217	0.38674472679954897	0.6039514693341055	0.6949707512821137	0.2571819109152568	0.6272930407879991	0.910790109487919	0.17386944662447543	0.6498528656820037	0.9923438540214979	0.17037300636814695	0.6550995778588904	1.0042516511806763	0.17083683558890098	0.6551478236606474	1.002908570436018	0.019802131989921954	0.527924346996023	0.41934281541809776	0.010635106019701827	0.6210687067159447	0.68202076717533	0.11240562154891383	0.6152536742905953	0.9076342659373148	0.19753709892510365	0.6225800419406243	0.9510217188011197	0.19513603940850152	0.6394853641192566	0.9962301086316898	0.17059519961702577	0.6557543548792139	1.0184075366069933
5	0.08333333333333333	0.298879616101779	0.7387429496852657	0.8358350127055356	0.2804134913685573	0.9602484854166631	1.2336058087271975	0.2549791167122766	1.2614526551726788	1.657820164397969	0.23743216873045003	1.007274375390195	1.7083925127650181	0.28221371737580425	1.0442577194639147	1.7063425721222385	0.24996664436265778	1.3078323793037374	1.6835027549260346	0.07349250735356258	0.7647441835458947	0.8298257292250599	0.08611739359152591	0.9821903905048648	1.228147655920508	0.07646965087938608	1.1848124726663645	1.6369639889292882	0.08625862720350586	1.0477869975557967	1.7049190989132854	0.030336318116945236	1.0634291691558524	1.688834105967073	0.09222684141468358	1.253083497820866	1.6694717525568143	0.1881179466875253	0.5392393954793214	0.32216836607110144	0.20353339945448648	0.36627291088261055	0.11741161998462968	0.17618815253625145	0.33981280309505146	0.26751915464256726	0.353463645902486	0.522592224847992	0.42691676027848446	0.38914792660479613	0.5898550558484541	0.6971038899326697	0.25711215527771175	0.6268874912303435	0.9107874525969316	0.17319996401378876	0.6464693767690252	0.9876887750911166	0.16967262002851843	0.6518381721354097	0.9997092926106104	0.17079709460188489	0.6552075199481137	1.0028242562764063	0.019801891456088547	0.5279145473824913	0.41924539147124723	0.007643167182413699	0.6044152761976633	0.6769880700316895	0.11243653259694719	0.6152982499954026	0.9076392478816115	0.19397661135895217	0.6251215332694607	0.9578278838596473	0.19573269058382226	0.6434711443577434	0.9999609399209687	0.17054970941512115	0.6559697633429717	1.0185493139037234
6	0.1	0.2989152925225656	0.738920533718298	0.8359839709845818	0.28211191001800534	0.9619940175349787	1.2337936540435646	0.2549659951599095	1.2613565762927161	1.6578846616595848	0.2416179406873002	1.0217027025705803	1.7107589875779046	0.2868753174861453	1.0588698301048711	1.708773646745034	0.24997854039427073	1.3076505939863123	1.683742954404479	0.07393559702565194	0.7679347405603516	0.8335200430595235	0.08604564210234902	0.9821906119227056	1.2281630781976745	0.07542401871850418	1.1870679237281467	1.6414624023590076	0.08622849962521859	1.0477689329675897	1.7050614946269649	0.03392970345174755	1.0797179805653663	1.691475349880397	0.09251360863967942	1.2527145664299293	1.6695027370589677	0.18812044284994514	0.5392430624133397	0.3221471360345236	0.20348261878174087	0.3667534014702641	0.11737845144916802	0.17619497510018164	0.33990250076428885	0.2674794617612486	0.3534600412888028	0.5226344058547165	0.42688007948855816	0.38923514542284426	0.5898473091927992	0.6971299495734307	0.2571593832074964	0.6268697177037474	0.9108256829599023	0.17317844210065278	0.646506991717738	0.9877760430550467	0.1703383121707113	0.6548743551512075	1.004197066226719	0.1707850015437104	0.6550638305775828	1.002900814194041	0.019790292539185336	0.5278822747212027	0.4193169752924481	0.007650153681851594	0.6045377018040069	0.6769967990411235	0.11236140863409703	0.615310067413552	0.907690346962569	0.19308553266403478	0.6215739474235217	0.9547135730792949	0.19479675339078695	0.6397267379080552	0.99647032798393	0.17057917420632898	0.6557403759015835	1.0184234732345396
